<?xml version="1.0" encoding="UTF-8" standalone="no"?>
<svg
   viewBox="0 0 800 1000"
   width="100%"
   height="100%"
   font-family="monospace, sans-serif"
   version="1.1"
   id="svg156"
   sodipodi:docname="gemini-svg.svg"
   inkscape:version="1.1.2 (0a00cf5339, 2022-02-04)"
   xmlns:inkscape="http://www.inkscape.org/namespaces/inkscape"
   xmlns:sodipodi="http://sodipodi.sourceforge.net/DTD/sodipodi-0.dtd"
   xmlns="http://www.w3.org/2000/svg"
   xmlns:svg="http://www.w3.org/2000/svg">
  <defs
     id="defs160" />
  <sodipodi:namedview
     id="namedview158"
     pagecolor="#ffffff"
     bordercolor="#666666"
     borderopacity="1.0"
     inkscape:pageshadow="2"
     inkscape:pageopacity="0.0"
     inkscape:pagecheckerboard="0"
     showgrid="false"
     inkscape:zoom="3.128"
     inkscape:cx="169.27749"
     inkscape:cy="830.40281"
     inkscape:window-width="1920"
     inkscape:window-height="1016"
     inkscape:window-x="0"
     inkscape:window-y="0"
     inkscape:window-maximized="1"
     inkscape:current-layer="svg156" />
  <style
     id="style2">
    .box { fill: none; stroke: #1a202c; stroke-width: 2.5; rx: 4; }
    .wire { fill: none; stroke: #1a202c; stroke-width: 2; }
    .label { font-size: 14px; fill: #1a202c; }
    .title { font-size: 16px; font-weight: bold; fill: #1a202c; }
    .port { fill: #1a202c; }
    .screen { fill: #111a22; rx: 4; }
    .wave { fill: none; stroke: #ffffff; stroke-width: 1.5; }
    .fader-track { stroke: #1a202c; stroke-width: 2; }
    .fader-thumb { fill: #ffffff; stroke: #1a202c; stroke-width: 2; }
    .fader-fill { stroke: #1a202c; stroke-width: 6; }
  </style>
  <rect
     x="100"
     y="300"
     width="160"
     height="240"
     class="box"
     id="rect4" />
  <text
     x="110"
     y="325"
     class="label"
     id="text6">X˙ = ω(X - Y)</text>
  <text
     x="110"
     y="345"
     class="label"
     id="text8">Y˙ = ρ(Y - X) + I</text>
  <rect
     x="110"
     y="355"
     width="140"
     height="110"
     class="screen"
     id="rect10" />
  <path
     d="M 135 410 C 135 370, 175 375, 180 410 C 185 445, 225 450, 225 410 C 225 370, 185 375, 180 410 C 175 445, 135 450, 135 410"
     class="wave"
     id="path12" />
  <text
     x="115"
     y="495"
     class="label"
     id="text14">ρ</text>
  <line
     x1="135"
     y1="490"
     x2="240"
     y2="490"
     class="fader-track"
     id="line16" />
  <line
     x1="135"
     y1="490"
     x2="180"
     y2="490"
     class="fader-fill"
     id="line18" />
  <rect
     x="175"
     y="482"
     width="10"
     height="16"
     class="fader-thumb"
     id="rect20" />
  <text
     x="115"
     y="520"
     class="label"
     id="text22">ω</text>
  <line
     x1="135"
     y1="515"
     x2="240"
     y2="515"
     class="fader-track"
     id="line24" />
  <line
     x1="135"
     y1="515"
     x2="210"
     y2="515"
     class="fader-fill"
     id="line26" />
  <rect
     x="205"
     y="507"
     width="10"
     height="16"
     class="fader-thumb"
     id="rect28" />
  <circle
     cx="100"
     cy="385"
     r="4"
     class="port"
     id="circle30" />
  <text
     x="35"
     y="390"
     class="label"
     id="text32">I-INPUT</text>
  <circle
     cx="260"
     cy="385"
     r="4"
     class="port"
     id="circle34" />
  <text
     x="270"
     y="380"
     class="label"
     id="text36">XOUT</text>
  <circle
     cx="260"
     cy="435"
     r="4"
     class="port"
     id="circle38" />
  <text
     x="270"
     y="445"
     class="label"
     id="text40">YOUT</text>
  <rect
     x="430"
     y="380"
     width="140"
     height="350"
     class="box"
     id="rect42" />
  <line
     x1="430"
     y1="450"
     x2="570"
     y2="450"
     class="wire"
     id="line44" />
  <line
     x1="430"
     y1="600"
     x2="570"
     y2="600"
     class="wire"
     id="line46" />
  <text
     x="445"
     y="420"
     class="title"
     id="text48">ODE DEF</text>
  <text
     x="445"
     y="475"
     class="label"
     id="text50">OSCILLOSCOPE</text>
  <path
     d="M 440 520 L 450 515 L 455 525 L 465 495 L 475 530 L 485 505 L 495 515 L 500 510 L 515 520 L 525 515 L 540 520 L 560 515"
     class="wire"
     id="path52" />
  <path
     d="M 440 570 Q 450 560, 460 570 T 480 570 T 500 570 T 520 570 T 540 570 T 560 570"
     class="wire"
     id="path54" />
  <line
     x1="450"
     y1="630"
     x2="550"
     y2="630"
     class="fader-track"
     id="line56" />
  <line
     x1="450"
     y1="630"
     x2="500"
     y2="630"
     class="fader-fill"
     id="line58" />
  <rect
     x="495"
     y="622"
     width="10"
     height="16"
     class="fader-thumb"
     id="rect60" />
  <line
     x1="450"
     y1="660"
     x2="550"
     y2="660"
     class="fader-track"
     id="line62" />
  <line
     x1="450"
     y1="660"
     x2="480"
     y2="660"
     class="fader-fill"
     id="line64" />
  <rect
     x="475"
     y="652"
     width="10"
     height="16"
     class="fader-thumb"
     id="rect66" />
  <line
     x1="450"
     y1="690"
     x2="550"
     y2="690"
     class="fader-track"
     id="line68" />
  <line
     x1="450"
     y1="690"
     x2="520"
     y2="690"
     class="fader-fill"
     id="line70" />
  <rect
     x="515"
     y="682"
     width="10"
     height="16"
     class="fader-thumb"
     id="rect72" />
  <line
     x1="450"
     y1="720"
     x2="550"
     y2="720"
     class="fader-track"
     id="line74" />
  <line
     x1="450"
     y1="720"
     x2="490"
     y2="720"
     class="fader-fill"
     id="line76" />
  <rect
     x="485"
     y="712"
     width="10"
     height="16"
     class="fader-thumb"
     id="rect78" />
  <circle
     cx="430"
     cy="500"
     r="4"
     class="port"
     id="circle80" />
  <circle
     cx="430"
     cy="550"
     r="4"
     class="port"
     id="circle82" />
  <text
     x="260"
     y="250"
     class="label"
     id="text84">EDITABLE</text>
  <text
     x="260"
     y="270"
     class="label"
     id="text86">ODE DEFINITION</text>
  <path
     d="M 260 275 L 235 305"
     class="wire"
     id="path88" />
  <polygon
     points="235,305 245,305 240,295"
     fill="#1a202c"
     id="polygon90" />
  <text
     x="325"
     y="350"
     class="label"
     id="text92">GAIN CONTROL</text>
  <path
     d="M 370 360 L 360 385"
     class="wire"
     id="path94" />
  <polygon
     points="360,385 365,375 355,375"
     fill="#1a202c"
     id="polygon96" />
  <circle
     cx="355"
     cy="410"
     r="14"
     class="box"
     id="circle98" />
  <line
     x1="355"
     y1="410"
     x2="365"
     y2="400"
     class="wire"
     id="line100" />
  <path
     d="M 260 385 Q 310 380 341 410"
     class="wire"
     id="path102" />
  <path
     d="M 369 410 Q 400 480 430 500"
     class="wire"
     id="path104" />
  <text
     x="60"
     y="750"
     class="title"
     id="text106">Audio Mixer</text>
  <path
     d="M 130 760 L 170 805"
     class="wire"
     id="path108" />
  <polygon
     points="170,805 160,805 165,795"
     fill="#1a202c"
     id="polygon110" />
  <rect
     x="75"
     y="810"
     width="670"
     height="140"
     class="box"
     id="rect112" />
  <rect
     x="90"
     y="825"
     width="80"
     height="110"
     class="box"
     id="rect114" />
  <text
     x="99.586449"
     y="845"
     class="label"
     font-size="12"
     id="text116"><tspan
       sodipodi:role="line"
       id="tspan1251"
       x="99.586449"
       y="845">ODE 1</tspan><tspan
       sodipodi:role="line"
       id="tspan1253"
       x="99.586449"
       y="862.5">X Y</tspan></text>
  <line
     x1="110"
     y1="864.13623"
     x2="110"
     y2="920"
     class="fader-track"
     id="line118" />
  <rect
     x="100"
     y="890"
     width="20"
     height="8"
     class="fader-thumb"
     id="rect120" />
  <line
     x1="140"
     y1="865.39001"
     x2="140"
     y2="920"
     class="fader-track"
     id="line122" />
  <rect
     x="130"
     y="870"
     width="20"
     height="8"
     class="fader-thumb"
     id="rect124" />
  <rect
     x="185"
     y="825"
     width="80"
     height="110"
     class="box"
     id="rect126" />
  <text
     x="200.35945"
     y="843.65881"
     class="label"
     font-size="12"
     id="text128">ODE 2</text>
  <text
     x="200"
     y="860"
     class="label"
     font-size="12"
     id="text130"><tspan
       sodipodi:role="line"
       id="tspan7765"
       x="200"
       y="860">V W</tspan></text>
  <line
     x1="205"
     y1="870"
     x2="205"
     y2="920"
     class="fader-track"
     id="line132" />
  <rect
     x="195"
     y="875"
     width="20"
     height="8"
     class="fader-thumb"
     id="rect134" />
  <line
     x1="235"
     y1="870"
     x2="235"
     y2="920"
     class="fader-track"
     id="line136" />
  <rect
     x="225"
     y="895"
     width="20"
     height="8"
     class="fader-thumb"
     id="rect138" />
  <rect
     x="280"
     y="825"
     width="80"
     height="110"
     class="box"
     id="rect140" />
  <line
     x1="300"
     y1="845"
     x2="300"
     y2="920"
     class="fader-track"
     id="line142" />
  <rect
     x="290"
     y="880"
     width="20"
     height="8"
     class="fader-thumb"
     id="rect144" />
  <line
     x1="330"
     y1="845"
     x2="330"
     y2="920"
     class="fader-track"
     id="line146" />
  <rect
     x="320"
     y="865"
     width="20"
     height="8"
     class="fader-thumb"
     id="rect148" />
  <text
     x="680"
     y="850"
     class="label"
     id="text150">MASTER</text>
  <line
     x1="705"
     y1="865"
     x2="705"
     y2="930"
     class="fader-track"
     id="line152" />
  <rect
     x="695"
     y="895"
     width="20"
     height="8"
     class="fader-thumb"
     id="rect154" />
</svg>
